<svg xmlns="http://www.w3.org/2000/svg" viewBox="0 0 800 450" width="800" height="450">
  <defs>
    <linearGradient id="bg-sky" x1="0" y1="0" x2="0" y2="1">
      <stop offset="0%" stop-color="#06040e"/>
      <stop offset="100%" stop-color="#12101e"/>
    </linearGradient>
    <linearGradient id="bg-stone" x1="0" y1="0" x2="0" y2="1">
      <stop offset="0%" stop-color="#3a3848"/>
      <stop offset="100%" stop-color="#28263a"/>
    </linearGradient>
    <radialGradient id="bg-flame1" cx="50%" cy="80%" r="60%">
      <stop offset="0%" stop-color="#ff8820" stop-opacity="0.5"/>
      <stop offset="100%" stop-color="#ff4400" stop-opacity="0"/>
    </radialGradient>
    <radialGradient id="bg-flame2" cx="50%" cy="80%" r="60%">
      <stop offset="0%" stop-color="#ff8820" stop-opacity="0.5"/>
      <stop offset="100%" stop-color="#ff4400" stop-opacity="0"/>
    </radialGradient>
    <radialGradient id="bg-eye" cx="50%" cy="50%" r="50%">
      <stop offset="0%" stop-color="#ff4400" stop-opacity="0.8"/>
      <stop offset="100%" stop-color="#ff4400" stop-opacity="0"/>
    </radialGradient>
    <filter id="bg-flame">
      <feGaussianBlur stdDeviation="4" result="blur"/>
      <feMerge><feMergeNode in="blur"/><feMergeNode in="SourceGraphic"/></feMerge>
    </filter>
  </defs>
  <rect width="800" height="450" fill="url(#bg-sky)"/>
  <g fill="#fffde0" opacity="0.5">
    <circle cx="60" cy="40" r="1"/><circle cx="160" cy="25" r="1.2"/>
    <circle cx="280" cy="55" r="0.9"/><circle cx="520" cy="35" r="1.1"/>
    <circle cx="640" cy="50" r="1.3"/><circle cx="720" cy="30" r="0.9"/>
    <circle cx="760" cy="70" r="1"/><circle cx="100" cy="80" r="0.8"/>
  </g>
  <rect x="0" y="295" width="800" height="155" fill="#04020a"/>
  <rect x="0" y="275" width="800" height="28" fill="#08061a" opacity="0.7"/>
  <rect x="0" y="245" width="800" height="58" fill="url(#bg-stone)"/>
  <line x1="0" y1="265" x2="800" y2="265" stroke="#1e1c2a" stroke-width="2"/>
  <line x1="0" y1="280" x2="800" y2="280" stroke="#1e1c2a" stroke-width="2"/>
  <line x1="100" y1="245" x2="100" y2="303" stroke="#1e1c2a" stroke-width="1.5"/>
  <line x1="200" y1="245" x2="200" y2="303" stroke="#1e1c2a" stroke-width="1.5"/>
  <line x1="300" y1="245" x2="300" y2="303" stroke="#1e1c2a" stroke-width="1.5"/>
  <line x1="500" y1="245" x2="500" y2="303" stroke="#1e1c2a" stroke-width="1.5"/>
  <line x1="600" y1="245" x2="600" y2="303" stroke="#1e1c2a" stroke-width="1.5"/>
  <line x1="700" y1="245" x2="700" y2="303" stroke="#1e1c2a" stroke-width="1.5"/>
  <path d="M180,303 Q400,178 620,303" fill="url(#bg-stone)" stroke="#1e1c2a" stroke-width="3"/>
  <path d="M222,303 Q400,208 578,303" fill="#06040e"/>
  <rect x="0" y="215" width="800" height="30" fill="#3a3848" opacity="0.8"/>
  <rect x="20" y="195" width="30" height="20" fill="#323040" rx="2"/>
  <rect x="80" y="195" width="30" height="20" fill="#323040" rx="2"/>
  <rect x="140" y="195" width="30" height="20" fill="#323040" rx="2"/>
  <rect x="560" y="195" width="30" height="20" fill="#323040" rx="2"/>
  <rect x="620" y="195" width="30" height="20" fill="#323040" rx="2"/>
  <rect x="680" y="195" width="30" height="20" fill="#323040" rx="2"/>
  <rect x="740" y="195" width="30" height="20" fill="#323040" rx="2"/>
  <rect x="242" y="158" width="14" height="88" fill="#3a2a1a"/>
  <rect x="235" y="146" width="28" height="22" fill="#4a3820" rx="4"/>
  <ellipse cx="249" cy="138" rx="30" ry="34" fill="url(#bg-flame1)" opacity="0.7"/>
  <g filter="url(#bg-flame)">
    <path d="M249,146 Q239,128 244,113 Q249,98 249,88 Q252,98 254,113 Q260,128 249,146Z" fill="#ff6600" opacity="0.9"/>
    <path d="M249,143 Q242,128 246,116 Q249,106 249,98 Q252,106 252,116 Q256,128 249,143Z" fill="#ffaa00" opacity="0.8"/>
    <path d="M249,140 Q245,130 247,120 Q249,112 249,106 Q251,112 251,120 Q253,130 249,140Z" fill="#ffe060" opacity="0.7"/>
  </g>
  <rect x="544" y="158" width="14" height="88" fill="#3a2a1a"/>
  <rect x="537" y="146" width="28" height="22" fill="#4a3820" rx="4"/>
  <ellipse cx="551" cy="138" rx="30" ry="34" fill="url(#bg-flame2)" opacity="0.7"/>
  <g filter="url(#bg-flame)">
    <path d="M551,146 Q541,128 546,113 Q551,98 551,88 Q554,98 556,113 Q562,128 551,146Z" fill="#ff6600" opacity="0.9"/>
    <path d="M551,143 Q544,128 548,116 Q551,106 551,98 Q554,106 554,116 Q558,128 551,143Z" fill="#ffaa00" opacity="0.8"/>
    <path d="M551,140 Q547,130 549,120 Q551,112 551,106 Q553,112 553,120 Q555,130 551,140Z" fill="#ffe060" opacity="0.7"/>
  </g>
  <rect x="362" y="178" width="76" height="68" fill="#2e2c3c" rx="4"/>
  <line x1="362" y1="205" x2="438" y2="205" stroke="#22202e" stroke-width="2"/>
  <line x1="362" y1="225" x2="438" y2="225" stroke="#22202e" stroke-width="2"/>
  <polygon points="400,192 414,212 400,222 386,212" fill="#3a3848" stroke="#50486a" stroke-width="1.5"/>
  <rect x="346" y="183" width="26" height="20" fill="#32304a" rx="3"/>
  <rect x="428" y="183" width="26" height="20" fill="#32304a" rx="3"/>
  <rect x="336" y="203" width="26" height="40" fill="#2e2c3c" rx="3"/>
  <rect x="438" y="203" width="26" height="40" fill="#2e2c3c" rx="3"/>
  <rect x="367" y="148" width="66" height="36" fill="#32304a" rx="6"/>
  <rect x="372" y="154" width="56" height="26" fill="#28263a" rx="4"/>
  <ellipse cx="388" cy="167" rx="7" ry="5" fill="#ff2200" opacity="0.8"/>
  <ellipse cx="412" cy="167" rx="7" ry="5" fill="#ff2200" opacity="0.8"/>
  <ellipse cx="388" cy="167" rx="4" ry="3" fill="#ff6600" opacity="0.9"/>
  <ellipse cx="412" cy="167" rx="4" ry="3" fill="#ff6600" opacity="0.9"/>
  <ellipse cx="388" cy="167" rx="12" ry="9" fill="url(#bg-eye)" opacity="0.5"/>
  <ellipse cx="412" cy="167" rx="12" ry="9" fill="url(#bg-eye)" opacity="0.5"/>
  <rect x="367" y="246" width="26" height="46" fill="#2e2c3c" rx="3"/>
  <rect x="407" y="246" width="26" height="46" fill="#2e2c3c" rx="3"/>
  <rect x="362" y="288" width="34" height="14" fill="#28263a" rx="3"/>
  <rect x="404" y="288" width="34" height="14" fill="#28263a" rx="3"/>
</svg>
