<svg xmlns="http://www.w3.org/2000/svg" viewBox="0 0 800 450" width="800" height="450">
  <defs>
    <linearGradient id="fg-sky" x1="0" y1="0" x2="0" y2="1">
      <stop offset="0%" stop-color="#06041a"/>
      <stop offset="100%" stop-color="#1a1040"/>
    </linearGradient>
    <radialGradient id="fg-moonHalo" cx="50%" cy="50%" r="50%">
      <stop offset="0%" stop-color="#fffde0" stop-opacity="0.3"/>
      <stop offset="100%" stop-color="#fffde0" stop-opacity="0"/>
    </radialGradient>
    <filter id="fg-glow">
      <feGaussianBlur stdDeviation="3" result="blur"/>
      <feMerge><feMergeNode in="blur"/><feMergeNode in="SourceGraphic"/></feMerge>
    </filter>
  </defs>
  <rect width="800" height="450" fill="url(#fg-sky)"/>
  <g fill="#fffde0" opacity="0.7">
    <circle cx="80" cy="40" r="1.2"/><circle cx="150" cy="25" r="0.9"/>
    <circle cx="220" cy="60" r="1.5"/><circle cx="310" cy="35" r="1"/>
    <circle cx="480" cy="50" r="1.3"/><circle cx="530" cy="20" r="0.8"/>
    <circle cx="680" cy="40" r="1.4"/><circle cx="740" cy="70" r="0.9"/>
    <circle cx="760" cy="130" r="1.2"/><circle cx="120" cy="90" r="0.8"/>
    <circle cx="350" cy="80" r="1"/><circle cx="420" cy="45" r="1.3"/>
    <circle cx="560" cy="75" r="0.9"/><circle cx="640" cy="110" r="1.1"/>
  </g>
  <circle cx="630" cy="90" r="70" fill="url(#fg-moonHalo)"/>
  <circle cx="630" cy="90" r="38" fill="#fffde0"/>
  <circle cx="650" cy="80" r="32" fill="#1a1040"/>
  <g fill="#071209">
    <polygon points="40,450 80,210 120,450"/>
    <polygon points="58,300 82,195 106,300"/>
    <rect x="77" y="440" width="8" height="20" fill="#1a0e06"/>
    <polygon points="110,450 155,225 200,450"/>
    <polygon points="124,318 152,220 180,318"/>
    <rect x="150" y="440" width="9" height="20" fill="#1a0e06"/>
    <polygon points="175,450 210,260 245,450"/>
    <rect x="208" y="440" width="7" height="20" fill="#1a0e06"/>
  </g>
  <g fill="#071209">
    <polygon points="555,450 590,260 625,450"/>
    <rect x="587" y="440" width="7" height="20" fill="#1a0e06"/>
    <polygon points="600,450 645,225 690,450"/>
    <polygon points="614,318 642,220 670,318"/>
    <rect x="640" y="440" width="9" height="20" fill="#1a0e06"/>
    <polygon points="680,450 720,210 760,450"/>
    <polygon points="698,300 722,195 746,300"/>
    <rect x="718" y="440" width="8" height="20" fill="#1a0e06"/>
  </g>
  <rect x="0" y="390" width="800" height="60" fill="#0a1408"/>
  <rect x="272" y="140" width="70" height="252" fill="#2a2a36" rx="3"/>
  <line x1="272" y1="170" x2="342" y2="170" stroke="#1a1a22" stroke-width="2"/>
  <line x1="272" y1="200" x2="342" y2="200" stroke="#1a1a22" stroke-width="2"/>
  <line x1="272" y1="230" x2="342" y2="230" stroke="#1a1a22" stroke-width="2"/>
  <line x1="272" y1="260" x2="342" y2="260" stroke="#1a1a22" stroke-width="2"/>
  <line x1="272" y1="290" x2="342" y2="290" stroke="#1a1a22" stroke-width="2"/>
  <line x1="272" y1="320" x2="342" y2="320" stroke="#1a1a22" stroke-width="2"/>
  <line x1="272" y1="350" x2="342" y2="350" stroke="#1a1a22" stroke-width="2"/>
  <rect x="262" y="132" width="90" height="18" fill="#363640" rx="3"/>
  <rect x="458" y="140" width="70" height="252" fill="#2a2a36" rx="3"/>
  <line x1="458" y1="170" x2="528" y2="170" stroke="#1a1a22" stroke-width="2"/>
  <line x1="458" y1="200" x2="528" y2="200" stroke="#1a1a22" stroke-width="2"/>
  <line x1="458" y1="230" x2="528" y2="230" stroke="#1a1a22" stroke-width="2"/>
  <line x1="458" y1="260" x2="528" y2="260" stroke="#1a1a22" stroke-width="2"/>
  <line x1="458" y1="290" x2="528" y2="290" stroke="#1a1a22" stroke-width="2"/>
  <line x1="458" y1="320" x2="528" y2="320" stroke="#1a1a22" stroke-width="2"/>
  <line x1="458" y1="350" x2="528" y2="350" stroke="#1a1a22" stroke-width="2"/>
  <rect x="448" y="132" width="90" height="18" fill="#363640" rx="3"/>
  <path d="M272,152 Q400,38 528,152" fill="none" stroke="#2a2a36" stroke-width="30"/>
  <path d="M278,152 Q400,46 522,152" fill="none" stroke="#363640" stroke-width="4" opacity="0.4"/>
  <g filter="url(#fg-glow)" opacity="0.85">
    <line x1="287" y1="176" x2="327" y2="176" stroke="#60ffcc" stroke-width="2"/>
    <line x1="287" y1="212" x2="327" y2="212" stroke="#60ffcc" stroke-width="2"/>
    <line x1="287" y1="248" x2="327" y2="248" stroke="#60ffcc" stroke-width="1.5"/>
    <rect x="296" y="268" width="14" height="18" fill="none" stroke="#60ffcc" stroke-width="1.5"/>
    <circle cx="310" cy="308" r="4" fill="none" stroke="#60ffcc" stroke-width="1.5"/>
  </g>
  <g filter="url(#fg-glow)" opacity="0.85">
    <line x1="473" y1="176" x2="513" y2="176" stroke="#60ffcc" stroke-width="2"/>
    <line x1="473" y1="212" x2="513" y2="212" stroke="#60ffcc" stroke-width="2"/>
    <line x1="473" y1="248" x2="513" y2="248" stroke="#60ffcc" stroke-width="1.5"/>
    <rect x="490" y="268" width="14" height="18" fill="none" stroke="#60ffcc" stroke-width="1.5"/>
    <circle cx="490" cy="308" r="4" fill="none" stroke="#60ffcc" stroke-width="1.5"/>
  </g>
  <ellipse cx="400" cy="390" rx="65" ry="12" fill="#40ff99" opacity="0.06"/>
</svg>
