<svg xmlns="http://www.w3.org/2000/svg" viewBox="0 0 800 450" width="800" height="450">
  <defs>
    <linearGradient id="rr-sky" x1="0" y1="0" x2="0" y2="1">
      <stop offset="0%" stop-color="#0a1628"/>
      <stop offset="100%" stop-color="#1a2840"/>
    </linearGradient>
    <linearGradient id="rr-water" x1="0" y1="0" x2="0" y2="1">
      <stop offset="0%" stop-color="#1a3a4a"/>
      <stop offset="100%" stop-color="#0d2030"/>
    </linearGradient>
  </defs>
  <rect width="800" height="200" fill="url(#rr-sky)"/>
  <g fill="#fffde0" opacity="0.6">
    <circle cx="600" cy="40" r="1.2"/><circle cx="650" cy="20" r="1"/>
    <circle cx="700" cy="55" r="1.4"/><circle cx="740" cy="30" r="0.8"/>
    <circle cx="500" cy="50" r="1"/><circle cx="450" cy="25" r="1.2"/>
    <circle cx="300" cy="35" r="0.9"/><circle cx="200" cy="55" r="1.1"/>
  </g>
  <rect x="0" y="155" width="800" height="55" fill="#122010"/>
  <rect x="0" y="195" width="800" height="185" fill="url(#rr-water)"/>
  <line x1="50" y1="228" x2="200" y2="233" stroke="#2a5060" stroke-width="2" opacity="0.5"/>
  <line x1="300" y1="248" x2="480" y2="243" stroke="#2a5060" stroke-width="2" opacity="0.5"/>
  <line x1="550" y1="258" x2="720" y2="253" stroke="#2a5060" stroke-width="2" opacity="0.5"/>
  <line x1="80" y1="278" x2="280" y2="283" stroke="#2a5060" stroke-width="1.5" opacity="0.35"/>
  <line x1="350" y1="298" x2="530" y2="293" stroke="#2a5060" stroke-width="1.5" opacity="0.35"/>
  <line x1="600" y1="308" x2="760" y2="303" stroke="#2a5060" stroke-width="1.5" opacity="0.35"/>
  <rect x="0" y="372" width="800" height="78" fill="#0e1a08"/>
  <ellipse cx="250" cy="295" rx="52" ry="22" fill="#3a3828"/>
  <ellipse cx="248" cy="288" rx="42" ry="10" fill="#4a4838" opacity="0.5"/>
  <ellipse cx="400" cy="300" rx="56" ry="21" fill="#3a3828"/>
  <ellipse cx="398" cy="293" rx="45" ry="9" fill="#4a4838" opacity="0.5"/>
  <ellipse cx="552" cy="293" rx="50" ry="22" fill="#3a3828"/>
  <ellipse cx="550" cy="286" rx="40" ry="10" fill="#4a4838" opacity="0.5"/>
  <ellipse cx="400" cy="294" rx="28" ry="17" fill="#2a4a1a"/>
  <ellipse cx="400" cy="291" rx="22" ry="13" fill="#3a5a20"/>
  <line x1="400" y1="278" x2="400" y2="304" stroke="#2a4a1a" stroke-width="1.5"/>
  <line x1="378" y1="289" x2="422" y2="293" stroke="#2a4a1a" stroke-width="1.5"/>
  <ellipse cx="425" cy="290" rx="9" ry="7" fill="#2a4a1a"/>
  <circle cx="429" cy="288" r="1.8" fill="#80ff60" opacity="0.7"/>
  <ellipse cx="382" cy="305" rx="8" ry="5" fill="#2a4a1a"/>
  <ellipse cx="418" cy="307" rx="8" ry="5" fill="#2a4a1a"/>
  <line x1="100" y1="380" x2="100" y2="200" stroke="#3a3010" stroke-width="4"/>
  <ellipse cx="100" cy="220" rx="7" ry="22" fill="#5a4010"/>
  <line x1="132" y1="380" x2="132" y2="210" stroke="#3a3010" stroke-width="4"/>
  <ellipse cx="132" cy="232" rx="7" ry="22" fill="#5a4010"/>
  <path d="M95,258 Q60,238 50,208" fill="none" stroke="#3a4a10" stroke-width="3"/>
  <path d="M106,268 Q142,248 152,218" fill="none" stroke="#3a4a10" stroke-width="3"/>
  <line x1="678" y1="380" x2="678" y2="200" stroke="#3a3010" stroke-width="4"/>
  <ellipse cx="678" cy="222" rx="7" ry="22" fill="#5a4010"/>
  <line x1="710" y1="380" x2="710" y2="215" stroke="#3a3010" stroke-width="4"/>
  <ellipse cx="710" cy="237" rx="7" ry="22" fill="#5a4010"/>
  <path d="M0,178 Q150,158 280,183" fill="none" stroke="#2a1a08" stroke-width="8"/>
  <path d="M0,176 Q150,156 280,181" fill="none" stroke="#3a2a10" stroke-width="4"/>
  <path d="M160,163 Q180,148 200,153" fill="none" stroke="#2a1a08" stroke-width="4"/>
  <g transform="translate(190,146)">
    <ellipse cx="0" cy="0" rx="14" ry="9" fill="#0a0a14"/>
    <circle cx="13" cy="-6" r="7" fill="#0a0a14"/>
    <path d="M-14,0 L-26,-6 L-24,4 Z" fill="#0a0a14"/>
    <path d="M19,-7 L25,-5 L19,-4 Z" fill="#1a1a28"/>
    <circle cx="15" cy="-7" r="1.5" fill="#fffde0"/>
  </g>
</svg>
